<?xml version="1.0" standalone="no"?>
<!DOCTYPE svg PUBLIC "-//W3C//DTD SVG 20010904//EN"
 "http://www.w3.org/TR/2001/REC-SVG-20010904/DTD/svg10.dtd">
<svg version="1.0" xmlns="http://www.w3.org/2000/svg"
 width="883.000000pt" height="883.000000pt" viewBox="0 0 883.000000 883.000000"
 preserveAspectRatio="xMidYMid meet">
<metadata>
Created by potrace 1.14, written by Peter Selinger 2001-2017
</metadata>
<g transform="translate(0.000000,883.000000) scale(0.100000,-0.100000)"
fill="#000000" stroke="none">
<path d="M2738 7897 c-397 -200 -697 -416 -1004 -722 -559 -557 -938 -1273
-1078 -2039 -50 -269 -60 -392 -60 -711 -1 -315 6 -407 50 -670 93 -549 319
-1101 642 -1565 239 -342 590 -697 930 -939 875 -623 1972 -856 3032 -645
1018 203 1926 821 2494 1697 432 667 644 1422 623 2222 -16 596 -153 1135
-423 1665 -324 635 -800 1151 -1425 1545 -104 65 -490 265 -512 265 -7 0 56
-35 138 -78 1148 -595 1899 -1774 1944 -3052 10 -312 -8 -572 -60 -840 -213
-1102 -926 -2042 -1931 -2546 -209 -104 -254 -118 -368 -112 -74 3 -98 9 -156
38 -84 41 -161 115 -197 190 -18 36 -78 269 -179 689 -117 487 -155 629 -163
615 -28 -49 -79 -94 -125 -109 -36 -12 -70 -36 -122 -86 -115 -111 -125 -114
-308 -114 -183 0 -193 3 -308 114 -52 50 -86 74 -122 86 -46 15 -97 60 -125
109 -8 14 -46 -122 -169 -600 -88 -343 -171 -646 -186 -680 -78 -172 -264
-272 -453 -243 -78 12 -366 152 -547 266 -1017 638 -1656 1734 -1699 2908 -13
385 19 706 105 1050 250 990 927 1844 1839 2317 83 43 145 78 138 78 -6 0
-103 -46 -215 -103z"/>
<path d="M2031 7194 c-26 -34 -58 -120 -79 -214 -24 -109 -23 -427 1 -573 55
-327 186 -720 342 -1027 87 -169 154 -237 366 -366 206 -126 375 -196 672
-279 217 -60 377 -138 467 -228 36 -36 57 -70 89 -148 71 -171 70 -170 27
-293 -48 -136 -53 -200 -31 -416 13 -131 15 -199 9 -270 -5 -52 -8 -142 -8
-200 -1 -170 36 -228 207 -330 68 -40 100 -67 140 -117 70 -90 100 -103 247
-103 147 0 177 13 247 103 40 50 72 77 140 117 171 102 208 160 207 330 0 58
-3 148 -8 200 -6 71 -4 139 9 270 22 216 17 280 -31 416 -43 123 -44 122 28
295 33 79 52 112 89 148 90 88 251 166 466 226 227 63 314 94 447 158 216 104
388 217 484 317 105 109 306 591 396 947 101 398 100 789 -2 992 -69 139 -105
58 -66 -148 32 -169 0 -469 -87 -824 -75 -303 -186 -597 -230 -605 -12 -2 -29
20 -58 73 -106 196 -376 539 -612 774 -156 157 -272 247 -394 308 -128 65
-278 94 -292 56 -9 -23 36 -56 127 -94 156 -65 226 -110 371 -235 277 -240
618 -695 689 -918 19 -59 8 -156 -24 -210 -27 -47 -92 -108 -147 -140 l-34
-20 28 33 c40 48 82 137 96 199 12 60 15 202 4 202 -5 0 -26 -35 -48 -77 -63
-121 -168 -274 -223 -325 -181 -169 -594 -336 -773 -312 -71 9 -74 17 -60 132
6 53 18 169 26 257 8 88 24 246 35 350 24 227 26 383 6 410 -13 18 -14 17 -29
-6 -34 -52 -75 -279 -137 -759 -31 -244 -49 -322 -100 -434 -67 -150 -162
-268 -286 -358 -177 -127 -238 -142 -354 -87 -162 76 -278 175 -367 311 -101
156 -134 262 -173 568 -62 480 -103 707 -137 759 -15 23 -16 24 -29 6 -20 -27
-18 -183 6 -410 11 -104 27 -262 35 -350 8 -88 20 -204 26 -257 14 -115 11
-123 -60 -132 -179 -24 -592 143 -773 312 -55 51 -160 204 -223 325 -22 42
-43 77 -47 77 -12 0 -9 -142 3 -202 14 -62 56 -151 96 -199 l28 -33 -34 20
c-55 32 -120 93 -147 140 -32 54 -43 151 -24 210 61 192 315 549 580 814 175
175 304 266 480 339 91 38 136 71 127 94 -20 54 -248 -15 -407 -123 -257 -175
-726 -708 -891 -1015 -29 -53 -46 -75 -58 -73 -44 8 -155 302 -230 605 -87
355 -119 655 -87 824 33 177 14 265 -43 193z m2073 -3303 c114 -56 164 -107
211 -217 26 -60 23 -59 -31 17 -30 43 -194 169 -220 169 -7 0 -18 -23 -25 -57
-13 -62 -25 -85 -33 -62 -3 8 -21 56 -40 108 l-34 93 46 -6 c25 -3 82 -24 126
-45z m922 33 c-4 -9 -21 -56 -39 -105 -17 -49 -35 -89 -39 -89 -4 0 -12 27
-19 60 -6 33 -16 63 -21 66 -26 16 -202 -121 -251 -196 -31 -48 -29 -24 3 40
54 105 147 182 264 220 78 24 110 26 102 4z m-416 -640 c143 -42 194 -100 205
-237 l5 -62 -16 44 -17 44 -26 -54 c-33 -67 -50 -78 -85 -56 -29 19 -50 56
-61 104 -6 28 -2 37 23 62 16 17 42 33 58 36 56 13 61 16 34 27 -46 18 -134 5
-187 -28 l-48 -30 -3 -147 c-2 -114 0 -147 10 -147 7 0 30 -8 51 -18 l39 -17
-112 0 -112 0 39 17 c21 10 44 18 51 18 10 0 12 33 10 147 l-3 147 -48 30
c-53 33 -141 46 -187 28 -27 -11 -22 -14 34 -27 16 -3 41 -19 57 -35 24 -24
28 -34 22 -62 -9 -48 -30 -86 -59 -105 -35 -22 -52 -11 -85 56 l-26 54 -17
-44 -16 -44 5 62 c9 113 48 175 138 213 108 47 220 55 327 24z"/>
<path d="M2440 6588 c-63 -102 -73 -324 -30 -638 11 -74 24 -160 31 -190 l12
-54 48 54 c55 62 55 56 18 185 -20 69 -23 103 -24 255 0 128 5 204 19 282 15
87 16 111 6 123 -22 26 -58 18 -80 -17z"/>
<path d="M6440 6606 c-10 -13 -9 -35 6 -124 14 -78 19 -154 19 -282 -1 -152
-4 -186 -24 -255 -37 -129 -37 -123 18 -185 l48 -54 12 54 c49 226 70 575 43
711 -18 87 -50 143 -83 147 -14 2 -31 -4 -39 -12z"/>
<path d="M2865 4443 c-27 -2 -54 -8 -58 -12 -13 -12 11 -164 40 -255 68 -219
196 -376 378 -466 136 -66 311 -97 485 -84 94 7 171 21 124 23 -52 2 -260 63
-346 100 -241 106 -427 283 -493 470 l-15 44 88 -6 c97 -7 248 -42 341 -80
174 -70 300 -184 381 -344 l29 -58 1 46 c0 26 7 84 15 131 12 71 24 117 62
237 2 9 -9 -9 -27 -39 -17 -30 -39 -64 -50 -74 -32 -32 -70 -7 -150 100 -116
155 -231 227 -415 259 -82 14 -259 18 -390 8z"/>
<path d="M5697 4435 c-178 -34 -293 -107 -407 -259 -80 -107 -118 -132 -150
-100 -11 10 -33 44 -50 74 -18 30 -29 48 -27 39 38 -120 50 -166 62 -237 8
-47 15 -105 15 -131 l1 -46 29 58 c81 160 207 274 381 344 93 38 244 73 341
80 l88 6 -15 -44 c-66 -187 -252 -364 -493 -470 -86 -37 -294 -98 -346 -100
-47 -2 30 -16 124 -23 175 -13 349 18 486 85 181 89 309 246 377 465 31 97 53
242 39 256 -18 18 -367 19 -455 3z"/>
</g>
</svg>
